<mxfile host="app.diagrams.net" agent="Mozilla/5.0 (Windows NT 10.0; Win64; x64) AppleWebKit/537.36 (KHTML, like Gecko) Chrome/131.0.0.0 Safari/537.36" version="25.0.1">
  <diagram name="Page-1" id="gAl3OayFpKwLIqJTtVjk">
    <mxGraphModel dx="1050" dy="557" grid="1" gridSize="10" guides="1" tooltips="1" connect="1" arrows="1" fold="1" page="1" pageScale="1" pageWidth="850" pageHeight="1100" math="0" shadow="0">
      <root>
        <mxCell id="0" />
        <mxCell id="1" parent="0" />
        <mxCell id="usQKBp3nBgcqW_zbrV0d-1" value="tampilkanSemuaPrestasi" style="ellipse;whiteSpace=wrap;html=1;" vertex="1" parent="1">
          <mxGeometry x="325" y="60" width="150" height="50" as="geometry" />
        </mxCell>
        <mxCell id="usQKBp3nBgcqW_zbrV0d-5" value="" style="endArrow=classic;html=1;rounded=0;exitX=0.5;exitY=1;exitDx=0;exitDy=0;" edge="1" parent="1" source="usQKBp3nBgcqW_zbrV0d-1">
          <mxGeometry width="50" height="50" relative="1" as="geometry">
            <mxPoint x="370" y="300" as="sourcePoint" />
            <mxPoint x="400" y="160" as="targetPoint" />
          </mxGeometry>
        </mxCell>
        <mxCell id="usQKBp3nBgcqW_zbrV0d-6" value="output&amp;nbsp;&lt;div&gt;&quot;TAMPILKAN SEMUA PRESTASI&quot;&lt;/div&gt;" style="shape=parallelogram;perimeter=parallelogramPerimeter;whiteSpace=wrap;html=1;fixedSize=1;" vertex="1" parent="1">
          <mxGeometry x="287.5" y="160" width="225" height="70" as="geometry" />
        </mxCell>
        <mxCell id="usQKBp3nBgcqW_zbrV0d-7" value="" style="endArrow=classic;html=1;rounded=0;exitX=0.5;exitY=1;exitDx=0;exitDy=0;" edge="1" parent="1" source="usQKBp3nBgcqW_zbrV0d-6">
          <mxGeometry width="50" height="50" relative="1" as="geometry">
            <mxPoint x="210" y="380" as="sourcePoint" />
            <mxPoint x="400" y="280" as="targetPoint" />
          </mxGeometry>
        </mxCell>
        <mxCell id="usQKBp3nBgcqW_zbrV0d-9" style="edgeStyle=orthogonalEdgeStyle;rounded=0;orthogonalLoop=1;jettySize=auto;html=1;exitX=0.5;exitY=1;exitDx=0;exitDy=0;" edge="1" parent="1" source="usQKBp3nBgcqW_zbrV0d-8">
          <mxGeometry relative="1" as="geometry">
            <mxPoint x="400.45454545454527" y="380.36363636363626" as="targetPoint" />
          </mxGeometry>
        </mxCell>
        <mxCell id="usQKBp3nBgcqW_zbrV0d-8" value="jumlahData==0" style="rhombus;whiteSpace=wrap;html=1;" vertex="1" parent="1">
          <mxGeometry x="335" y="280" width="130" height="120" as="geometry" />
        </mxCell>
        <mxCell id="usQKBp3nBgcqW_zbrV0d-10" value="sout &quot;Belum ada data prestasi&quot;" style="shape=parallelogram;perimeter=parallelogramPerimeter;whiteSpace=wrap;html=1;fixedSize=1;" vertex="1" parent="1">
          <mxGeometry x="540" y="320" width="210" height="50" as="geometry" />
        </mxCell>
        <mxCell id="usQKBp3nBgcqW_zbrV0d-11" value="" style="endArrow=classic;html=1;rounded=0;exitX=1;exitY=0.5;exitDx=0;exitDy=0;entryX=0.057;entryY=0.407;entryDx=0;entryDy=0;entryPerimeter=0;" edge="1" parent="1" source="usQKBp3nBgcqW_zbrV0d-8" target="usQKBp3nBgcqW_zbrV0d-10">
          <mxGeometry width="50" height="50" relative="1" as="geometry">
            <mxPoint x="470" y="340" as="sourcePoint" />
            <mxPoint x="550" y="340" as="targetPoint" />
          </mxGeometry>
        </mxCell>
        <mxCell id="usQKBp3nBgcqW_zbrV0d-12" value="true" style="text;html=1;align=center;verticalAlign=middle;whiteSpace=wrap;rounded=0;" vertex="1" parent="1">
          <mxGeometry x="475" y="316" width="60" height="30" as="geometry" />
        </mxCell>
        <mxCell id="usQKBp3nBgcqW_zbrV0d-13" value="" style="endArrow=classic;html=1;rounded=0;exitX=0.5;exitY=1;exitDx=0;exitDy=0;" edge="1" parent="1" source="usQKBp3nBgcqW_zbrV0d-8">
          <mxGeometry width="50" height="50" relative="1" as="geometry">
            <mxPoint x="490" y="450" as="sourcePoint" />
            <mxPoint x="400" y="440" as="targetPoint" />
          </mxGeometry>
        </mxCell>
        <mxCell id="usQKBp3nBgcqW_zbrV0d-14" value="i=0" style="rounded=0;whiteSpace=wrap;html=1;" vertex="1" parent="1">
          <mxGeometry x="340" y="440" width="120" height="40" as="geometry" />
        </mxCell>
        <mxCell id="usQKBp3nBgcqW_zbrV0d-15" value="" style="endArrow=classic;html=1;rounded=0;exitX=0.5;exitY=1;exitDx=0;exitDy=0;" edge="1" parent="1" source="usQKBp3nBgcqW_zbrV0d-14">
          <mxGeometry width="50" height="50" relative="1" as="geometry">
            <mxPoint x="420" y="480" as="sourcePoint" />
            <mxPoint x="400" y="520" as="targetPoint" />
          </mxGeometry>
        </mxCell>
      </root>
    </mxGraphModel>
  </diagram>
</mxfile>
